<?xml version="1.0" standalone="no"?>
<!DOCTYPE svg PUBLIC "-//W3C//DTD SVG 20010904//EN"
 "http://www.w3.org/TR/2001/REC-SVG-20010904/DTD/svg10.dtd">
<svg version="1.0" xmlns="http://www.w3.org/2000/svg"
 width="400.000000pt" height="400.000000pt" viewBox="0 0 400.000000 400.000000"
 preserveAspectRatio="xMidYMid meet">

<g transform="translate(0.000000,400.000000) scale(0.100000,-0.100000)"
fill="#000000" stroke="none">
<path d="M2275 3789 c-129 -29 -234 -88 -336 -189 -67 -67 -120 -83 -176 -55
-48 24 -72 29 -138 29 -77 0 -120 -24 -152 -83 -25 -49 -30 -105 -10 -148 14
-32 54 -73 71 -73 6 0 31 19 56 41 95 87 137 110 147 81 3 -9 14 -26 25 -38
17 -19 17 -26 6 -95 -7 -41 -12 -107 -11 -147 1 -71 0 -74 -20 -67 -57 19
-106 17 -146 -6 -63 -35 -91 -85 -91 -161 0 -54 4 -67 26 -92 15 -15 42 -35
60 -42 39 -17 39 -13 19 -165 -9 -63 -15 -130 -15 -149 0 -96 -14 -270 -22
-270 -5 0 -51 13 -101 29 -51 17 -114 33 -142 36 -27 4 -61 9 -75 12 -14 3
-43 8 -65 10 -22 3 -55 16 -75 28 -19 12 -46 25 -60 29 -14 4 -40 14 -59 23
-36 16 -93 12 -134 -9 -12 -6 -29 -14 -37 -18 -29 -13 -80 -91 -80 -121 0 -19
-6 -32 -17 -36 -38 -14 -120 -73 -169 -119 -96 -93 -147 -166 -200 -289 -47
-111 -63 -364 -30 -500 18 -79 75 -199 115 -243 14 -16 38 -43 53 -60 28 -32
130 -112 142 -112 5 0 20 -8 34 -19 15 -10 59 -30 97 -45 39 -15 79 -31 90
-36 18 -9 59 -20 135 -37 43 -10 50 -20 33 -53 -27 -55 -22 -81 19 -103 31
-17 35 -23 27 -38 -8 -15 -4 -21 22 -34 17 -9 40 -15 52 -15 47 4 57 0 57 -23
0 -13 -4 -27 -9 -32 -5 -6 -12 -26 -16 -46 -10 -55 33 -86 83 -60 9 5 51 26
92 46 102 50 134 68 143 82 4 7 12 13 17 13 4 0 52 29 105 65 53 36 100 65
106 65 5 0 9 4 9 9 0 5 26 25 58 45 31 19 74 50 94 68 72 64 80 68 133 68 47
0 205 16 250 25 11 2 44 8 74 14 84 17 131 30 188 52 l52 21 53 -35 c29 -19
94 -54 143 -76 50 -23 97 -45 105 -50 8 -4 43 -23 77 -40 39 -21 78 -52 104
-82 43 -52 82 -77 137 -90 34 -7 62 8 62 35 0 7 9 21 19 30 18 17 21 16 66 -8
25 -14 58 -26 74 -26 24 0 30 6 39 39 12 39 0 144 -19 165 -13 14 -11 40 5 73
8 15 19 40 25 56 9 24 16 27 55 27 28 0 46 5 49 14 6 15 -1 55 -13 71 -4 6
-11 21 -15 35 -22 69 -152 212 -252 277 -29 18 -53 39 -53 46 -1 32 -32 189
-51 252 -18 62 -63 162 -78 175 -28 24 -32 39 -16 64 20 29 15 62 -21 148 -13
31 -28 73 -33 95 -6 21 -18 70 -28 108 -10 39 -21 72 -25 73 -5 2 -8 29 -8 60
1 56 2 58 61 122 121 130 151 166 191 233 30 49 47 69 67 73 53 11 91 35 121
75 26 36 30 51 30 103 0 89 -43 144 -135 172 -65 19 -109 8 -157 -39 l-40 -40
7 34 c5 19 8 80 8 136 0 97 1 103 23 118 14 9 24 25 24 40 0 15 7 26 20 30 24
8 90 -4 90 -16 0 -5 8 -13 18 -16 9 -4 27 -17 39 -29 27 -29 68 -40 88 -24 7
6 19 35 26 64 26 116 -36 201 -155 213 -46 5 -61 2 -93 -18 -21 -13 -43 -30
-49 -38 -10 -13 -16 -13 -38 -3 -15 7 -35 12 -45 12 -10 0 -31 17 -47 38 -64
84 -170 167 -260 201 -33 13 -68 27 -79 32 -84 36 -314 52 -420 28z m252 -239
c90 -85 107 -100 182 -154 99 -73 265 -146 329 -146 30 0 34 -11 33 -112 -1
-119 -23 -191 -96 -313 -18 -31 -104 -107 -146 -130 -137 -75 -201 -94 -339
-101 -79 -5 -126 -2 -190 11 -47 10 -98 20 -115 23 -16 3 -50 16 -75 30 -25
13 -58 32 -75 40 -44 23 -155 143 -155 167 0 12 -5 26 -12 33 -18 18 -30 99
-34 242 -5 161 1 178 66 197 44 13 98 35 132 53 10 6 24 10 32 10 8 0 16 3 18
8 2 4 30 21 63 37 32 17 81 45 107 63 26 17 51 32 55 32 5 1 33 21 63 45 30
24 60 43 67 42 6 -1 47 -36 90 -77z m588 -124 c11 -16 13 -30 6 -47 -8 -23 -9
-22 -20 16 -17 62 -13 72 14 31z m236 -428 c26 -29 29 -40 29 -95 0 -81 -24
-113 -92 -120 -43 -5 -49 -3 -77 28 -28 30 -31 40 -31 99 1 91 23 118 103 119
31 1 44 -5 68 -31z m-1612 -10 c26 -28 31 -41 31 -84 0 -47 -3 -55 -35 -83
-42 -36 -78 -47 -114 -35 -38 14 -53 49 -47 119 4 52 8 63 38 87 46 39 88 37
127 -4z m1372 -61 c-8 -8 -11 -5 -11 9 0 27 14 41 18 19 2 -9 -1 -22 -7 -28z
m19 -127 c-1 -40 -204 -267 -514 -573 -362 -358 -368 -363 -414 -337 -38 22
-188 70 -217 70 -24 0 -35 -6 -43 -25 -12 -27 -42 -34 -42 -11 0 8 4 17 9 20
4 3 11 19 14 36 4 16 28 62 54 101 27 38 54 81 61 94 21 40 33 130 30 229 -3
82 -6 97 -23 110 -23 16 -45 5 -45 -24 0 -37 -15 -26 -78 53 -90 114 -146 199
-145 218 1 9 12 28 26 42 l24 27 14 -26 c26 -50 129 -134 213 -173 155 -74
209 -85 406 -85 150 -1 185 2 246 21 102 30 172 70 244 137 20 19 64 57 100
85 63 51 80 53 80 11z m78 -71 c3 -22 -91 -141 -243 -307 -27 -30 -54 -61 -58
-69 -5 -8 -2 -47 8 -91 9 -42 21 -98 25 -124 5 -26 13 -55 18 -65 5 -10 12
-39 16 -65 4 -25 14 -52 21 -58 8 -7 15 -20 15 -29 0 -9 7 -29 15 -44 14 -27
13 -28 -18 -47 -17 -11 -66 -33 -107 -49 -203 -80 -436 -64 -568 37 l-24 18
49 40 c56 45 488 475 519 517 12 16 55 65 96 110 42 45 86 95 99 111 13 15 31
36 39 45 9 9 29 34 44 54 29 37 49 43 54 16z m-1479 -37 c11 -21 27 -44 35
-51 9 -8 16 -20 16 -27 0 -8 4 -14 9 -14 5 0 18 -15 30 -32 11 -18 28 -42 38
-53 59 -67 120 -144 133 -168 11 -22 11 -34 2 -61 -7 -18 -12 -41 -12 -52 -1
-19 -26 -64 -69 -121 l-24 -32 -31 22 c-17 12 -33 25 -36 29 -8 10 -127 48
-151 48 -21 0 -21 1 -14 188 4 103 11 194 16 203 5 9 11 48 13 85 5 81 4 74
16 74 5 0 18 -17 29 -38z m-703 -421 c5 -5 36 -24 69 -41 47 -25 82 -35 160
-45 120 -16 225 -39 265 -60 35 -18 81 -19 148 -4 43 10 54 9 88 -7 43 -21 84
-82 84 -127 0 -68 -61 -137 -122 -137 -28 0 -42 25 -53 97 -7 46 -36 79 -60
69 -12 -4 -14 -10 -5 -25 5 -11 10 -31 10 -46 0 -14 5 -45 11 -69 11 -44 37
-63 110 -81 29 -7 85 13 112 40 15 14 20 15 33 4 35 -29 93 -128 119 -204 24
-69 28 -97 29 -200 1 -116 -17 -250 -35 -261 -5 -3 -9 -14 -9 -25 0 -35 -99
-197 -155 -252 -84 -83 -242 -156 -410 -188 -56 -11 -344 -2 -360 11 -5 4 -32
11 -60 15 -60 9 -183 48 -245 78 -48 24 -192 127 -225 162 -173 182 -201 556
-63 833 51 102 140 199 241 261 l38 23 17 -23 c9 -12 19 -26 22 -30 13 -18 88
-49 118 -49 28 0 44 12 108 77 67 70 73 79 57 90 -20 15 -53 17 -53 3 0 -5 -4
-10 -10 -10 -5 0 -29 -20 -52 -45 -72 -76 -133 -53 -131 49 1 55 21 87 68 114
24 14 127 16 141 3z m1022 -367 c32 -9 27 -23 -12 -39 -19 -8 -37 -19 -41 -25
-9 -15 -35 -12 -42 6 -7 18 33 64 56 64 9 0 26 -3 39 -6z m132 -64 c12 -9 8
-16 -25 -43 -21 -17 -52 -45 -68 -60 -33 -32 -46 -31 -67 8 -16 30 -19 28 74
77 57 30 65 32 86 18z m62 -107 c-47 -88 -56 -126 -58 -241 -2 -103 -4 -116
-27 -150 -56 -81 -44 -176 27 -217 52 -30 113 -39 163 -26 48 13 141 101 148
140 3 14 10 46 15 71 5 25 12 66 16 93 3 26 10 50 15 53 5 3 9 14 9 24 0 10 3
20 8 22 4 2 19 21 33 43 14 22 43 59 63 81 36 40 41 42 112 49 40 4 76 11 80
16 3 5 14 9 26 9 11 0 34 6 51 14 79 33 89 36 105 27 16 -9 72 -108 72 -128 0
-5 6 -23 14 -39 15 -30 43 -173 52 -259 3 -27 12 -78 20 -113 9 -35 17 -68 18
-75 7 -37 30 -97 38 -97 4 0 8 -5 8 -11 0 -6 8 -23 18 -37 23 -35 56 -119 80
-207 52 -191 51 -212 -8 -171 -19 13 -48 27 -63 30 -26 6 -29 3 -52 -49 -14
-30 -28 -55 -33 -55 -4 0 -26 19 -47 41 -42 43 -137 108 -215 146 -63 31 -158
73 -164 73 -17 0 -129 85 -153 117 -32 41 -83 139 -83 159 0 55 -59 89 -61 37
-2 -41 2 -67 11 -78 4 -5 11 -25 15 -44 4 -18 16 -42 27 -53 10 -10 18 -24 16
-30 -10 -29 -398 -107 -538 -108 -64 0 -68 -1 -143 -57 -42 -32 -95 -70 -119
-85 -24 -14 -74 -49 -111 -77 -38 -28 -84 -58 -103 -66 -19 -8 -34 -18 -34
-24 0 -5 -8 -12 -18 -15 -9 -3 -41 -21 -69 -40 -29 -19 -62 -38 -75 -42 -12
-3 -28 -13 -36 -20 -17 -17 -42 -18 -42 -1 0 7 9 29 20 50 11 20 20 43 20 50
0 15 -55 37 -95 37 -31 0 -34 -5 34 53 49 40 163 88 257 108 55 11 107 25 116
30 10 5 23 9 30 9 7 0 38 13 68 28 115 59 170 102 225 177 17 22 32 42 36 45
15 14 81 160 105 232 34 106 44 310 20 398 l-15 55 37 37 c20 21 43 37 50 38
6 0 12 4 12 8 0 13 85 73 88 63 2 -6 -5 -28 -16 -48z m124 -8 c10 -8 26 -15
34 -15 8 0 27 -6 42 -14 15 -8 52 -20 83 -27 54 -12 73 -33 40 -45 -8 -3 -17
-14 -20 -23 -3 -10 -13 -26 -23 -37 -41 -47 -81 -163 -82 -239 -1 -61 -38
-125 -90 -152 -57 -30 -114 -31 -134 -1 -25 35 -20 109 8 151 22 33 25 48 28
161 2 68 9 130 15 138 6 7 16 31 22 53 7 22 14 46 16 53 6 16 37 15 61 -3z
m991 -577 c58 -60 133 -174 133 -204 0 -9 -11 -14 -31 -14 -20 0 -37 -8 -49
-22 l-17 -22 -22 48 c-11 27 -21 52 -21 56 0 4 -9 19 -20 32 -22 29 -56 116
-66 172 -6 35 -5 37 12 27 11 -6 47 -39 81 -73z m-2144 -505 c22 -14 -53 -65
-110 -76 -38 -7 -41 3 -21 61 l13 34 55 -7 c30 -4 59 -9 63 -12z"/>
<path d="M2260 3349 c-7 -11 -9 -31 -6 -44 6 -22 41 -39 58 -29 15 10 29 56
23 75 -9 27 -61 26 -75 -2z"/>
<path d="M2513 3353 c-19 -7 -17 -80 3 -87 28 -11 52 -6 58 10 21 54 -13 97
-61 77z"/>
<path d="M2140 3238 c-20 -31 -21 -62 -5 -118 7 -22 96 -60 140 -60 21 0 55
10 76 22 l39 22 20 -21 c10 -12 33 -24 49 -28 17 -4 33 -11 36 -16 9 -14 63
-11 96 7 28 14 33 14 56 -1 13 -9 27 -14 31 -11 3 4 6 50 6 102 1 79 -2 98
-15 105 -24 12 -46 -17 -56 -75 -8 -47 -10 -50 -57 -69 -45 -19 -50 -19 -75
-4 -14 8 -30 31 -36 49 -21 70 -48 77 -90 22 -31 -40 -87 -68 -120 -60 -12 3
-30 21 -40 39 -17 32 -17 37 -2 75 14 36 15 41 1 46 -27 10 -34 7 -54 -26z"/>
<path d="M1084 1893 c-32 -34 -30 -49 7 -69 25 -12 37 -14 56 -5 20 9 24 17
21 48 -3 31 -8 38 -32 44 -23 6 -32 3 -52 -18z"/>
<path d="M1364 1825 c-21 -32 -15 -57 18 -72 33 -16 52 -9 67 24 15 33 6 59
-22 67 -37 10 -46 7 -63 -19z"/>
<path d="M965 1730 c-127 -23 -210 -110 -249 -261 -15 -60 -11 -93 17 -159 24
-56 77 -102 168 -147 106 -53 227 -84 350 -91 159 -8 223 17 289 113 55 81 67
221 25 308 -47 100 -186 184 -360 217 -165 33 -170 33 -240 20z m285 -81 c103
-32 166 -67 210 -115 58 -64 76 -169 42 -254 -40 -107 -144 -169 -255 -155
-162 20 -275 50 -329 87 -14 10 -30 18 -35 18 -15 0 -54 48 -79 97 -29 59 -31
122 -4 182 11 24 20 49 20 55 0 24 87 90 139 107 56 17 203 7 291 -22z"/>
<path d="M964 1545 c-37 -29 -64 -90 -64 -145 0 -47 21 -63 78 -58 43 4 72 40
96 120 16 56 10 80 -24 98 -29 16 -52 12 -86 -15z"/>
<path d="M1240 1478 c-29 -31 -33 -42 -45 -126 -10 -61 12 -92 64 -92 41 0 53
10 89 73 29 50 30 136 4 160 -31 28 -79 22 -112 -15z"/>
</g>
</svg>
